<svg xmlns="http://www.w3.org/2000/svg" viewBox="0 0 512 512" role="img" aria-label="أيقونة لعبة الضاد">
  <defs>
    <linearGradient id="bg" x1="0%" y1="0%" x2="100%" y2="100%">
      <stop offset="0%" stop-color="#16324f"/>
      <stop offset="55%" stop-color="#4aa3a2"/>
      <stop offset="100%" stop-color="#f59e0b"/>
    </linearGradient>
    <linearGradient id="glow" x1="0%" y1="0%" x2="100%" y2="100%">
      <stop offset="0%" stop-color="#ffffff" stop-opacity="0.95"/>
      <stop offset="100%" stop-color="#fef3c7" stop-opacity="0.88"/>
    </linearGradient>
  </defs>
  <rect width="512" height="512" rx="110" fill="url(#bg)"/>
  <circle cx="256" cy="236" r="138" fill="rgba(255,255,255,0.12)"/>
  <path d="M167 171h161c31 0 57 24 57 54 0 20-11 37-29 47 17 10 27 27 27 46 0 34-28 61-63 61H180v-57h126c11 0 20-8 20-18s-9-18-20-18H212v-52h94c10 0 19-8 19-18s-9-18-19-18H167v-57z" fill="url(#glow)"/>
  <circle cx="347" cy="149" r="24" fill="#fff7ed"/>
  <circle cx="378" cy="110" r="10" fill="#fde68a"/>
  <circle cx="140" cy="400" r="12" fill="#ffffff" opacity="0.65"/>
</svg>
